<svg xmlns="http://www.w3.org/2000/svg" version="1.1" xmlns:xlink="http://www.w3.org/1999/xlink" xmlns:svgjs="http://svgjs.dev/svgjs" width="100%" height="100%" viewBox="0 0 1000 600"><rect width="1000" height="600" x="0" y="0" fill="black"/><g><circle r="166.66666666666666" cx="329.92971293131507" cy="352.15200481637953" fill="black" transform="matrix(0.7656354287283839,0,0,0.765635428728384,0,30.37997154398579)"/><path d="M322.31103571047686 277.152026366604L322.31103571047686 293.4442713827008L274.1082604380323 293.4442713827008L274.1082604380323 427.15203039070354L254.41691394375707 427.15203039070354L254.41691394375707 293.4442713827008L206.30204646816193 293.4442713827008L206.30204646816193 277.152026366604L322.31103571047686 277.152026366604ZM353.0201594098823 277.152026366604L391.93401081523575 352.45970566762685L431.0822830121877 277.152026366604L453.55737640669525 277.152026366604L401.838289260273 371.21336899550795L401.838289260273 427.15203039070354L382.05903496914834 427.15203039070354L382.05903496914834 371.21336899550795L330.339947822726 277.152026366604L353.0201594098823 277.152026366604Z " fill="white" transform="matrix(0.7656354287283839,0,0,0.765635428728384,0,30.37997154398579)"/><path d="M694.3737266622121 279.1755361092944L694.3737266622121 295.247997273485L646.8212111674395 295.247997273485L646.8212111674395 427.1520265760063L627.3955027100004 427.1520265760063L627.3955027100004 295.247997273485L579.9297091279842 295.247997273485L579.9297091279842 279.1755361092944L694.3737266622121 279.1755361092944ZM733.803289662133 317.1886412008604L733.803289662133 427.1520265760063L715.0135418982411 427.1520265760063L715.0135418982411 317.1886412008604L733.803289662133 317.1886412008604ZM713.4814547728776 288.02117121044967L713.4814547728776 288.02117121044967Q713.4814547728776 283.45381713861127 716.2565559810831 280.3029209751279Q719.0605644935408 277.1520248116445 724.5529523014477 277.1520248116445Q730.0453401093546 277.1520248116445 732.8782559260644 280.3029209751279Q735.7400790470265 283.45381713861127 735.7400790470265 288.02117121044967Q735.7400790470265 292.588525282288 732.8782559260644 295.652699533015Q730.0453401093546 298.68796647948983 724.5529523014477 298.68796647948983Q719.0605644935408 298.68796647948983 716.2565559810831 295.652699533015Q713.4814547728776 292.588525282288 713.4814547728776 288.02117121044967ZM763.7801641716036 317.1886412008604L781.5581562866705 317.1886412008604L782.0784877632092 329.38752359526404Q794.1617409406042 315.1651299032104 814.6859269596247 315.1651299032104L814.6859269596247 315.1651299032104Q837.7539557528335 315.1651299032104 846.1081666817024 332.8274928012688L846.1081666817024 332.8274928012688Q851.6005544896093 324.90689143618215 860.3883749822603 320.05046432182235Q869.1761954749113 315.1651299032104 881.17272673955 315.1651299032104L881.17272673955 315.1651299032104Q917.3357643589788 315.1651299032104 917.9428177482739 353.4673080372978L917.9428177482739 353.4673080372978L917.9428177482739 427.1520265760063L899.1530699843819 427.1520265760063L899.1530699843819 354.5946929031313Q899.1530699843819 342.8005127682576 893.7763113934836 336.96123730932504Q888.3706454983331 331.1219618503925 875.6803389316431 331.1219618503925L875.6803389316431 331.1219618503925Q865.2158947923679 331.1219618503925 858.3070490761061 337.3659395688551Q851.3982033598443 343.60991728731756 850.2708184940108 354.1899906436014L850.2708184940108 354.1899906436014L850.2708184940108 427.1520265760063L831.3654415131102 427.1520265760063L831.3654415131102 355.08611707541775Q831.3654415131102 331.1219618503925 807.8927104603714 331.1219618503925L807.8927104603714 331.1219618503925Q789.3920357390009 331.1219618503925 782.5699119354955 346.87644266780956L782.5699119354955 346.87644266780956L782.5699119354955 427.1520265760063L763.7801641716036 427.1520265760063L763.7801641716036 317.1886412008604ZM968.877487840547 279.1755361092944L968.877487840547 411.1951946288242L1038.97770065199 411.1951946288242L1038.97770065199 427.1520265760063L949.249428253343 427.1520265760063L949.249428253343 279.1755361092944L968.877487840547 279.1755361092944ZM1043.6606839408369 279.1755361092944L1082.0784912919328 353.4673080372978L1120.6986497727937 279.1755361092944L1142.841644829934 279.1755361092944L1091.8202528249044 371.9679827586683L1091.8202528249044 427.1520265760063L1072.307822454709 427.1520265760063L1072.307822454709 371.9679827586683L1021.3153377539315 279.1755361092944L1043.6606839408369 279.1755361092944Z " fill="purple" transform="matrix(0.7656354287283839,0,0,0.765635428728384,0,30.37997154398579)"/></g></svg>